<?xml version="1.0"?>
<!DOCTYPE svg PUBLIC "-//W3C//DTD SVG 1.1//EN" "http://www.w3.org/Graphics/SVG/1.1/DTD/svg11.dtd">
<svg version="1.1" xmlns="http://www.w3.org/2000/svg" xmlns:xlink="http://www.w3.org/1999/xlink" width="32" height="32">
	<path d="M 4,23 9,26 16.5,21.5 18,18.5 10.5,23 5.5,20 Z" style="fill:red;stroke:none"/>
	<path d="M 16.5,21.5 24,17 25.5,14 18,18.5 Z" style="fill:blue;stroke:none"/>
	<path d="M 5.5,20 10.5,23 25.5,14 26.5,12 11.5,21 6.5,18 Z" style="fill:white;stroke:none"/>
	<path d="M 6.5,18 11.5,21 19,16.5 20.5,13.5 15.5,10.5 8,15 Z" style="fill:blue;stroke:none"/>
	<path d="M 19,16.5 26.5,12 28,9 23,6 15.5,10.5 20.5,13.5 Z" style="fill:red;stroke:none"/>
	<path d="M 4,23 9,26 24,17 28,9 23,6 8,15 Z" style="fill:none;stroke:black;stroke-width:1px"/>
	<path d="M 9,26 13,18 28,9" style="fill:none;stroke:black;stroke-width:1px"/>
	<path d="M 13,18 8,15" style="fill:none;stroke:black;stroke-width:1px"/>
</svg>
