<?xml version="1.0"?>
<!DOCTYPE svg PUBLIC "-//W3C//DTD SVG 1.1//EN" "http://www.w3.org/Graphics/SVG/1.1/DTD/svg11.dtd">
<svg version="1.1" xmlns="http://www.w3.org/2000/svg" xmlns:xlink="http://www.w3.org/1999/xlink" width="32" height="32">
	<path d="M 14,2.1 A 14,14 0 0 1 18,2.1 L 18,6.2 A 10,10 0 0 1 21.5,7.6 L 24.4,4.8 A 14,14 0 0 1 27.2,7.6 L 24.4,10.5 A 10,10 0 0 1 25.8,14 L 29.9,14 A 14,14 0 0 1 29.9,18 L 25.8,18 A 10,10 0 0 1 24.4,21.5 L 27.2,24.4 A 14,14 0 0 1 24.4,27.2 L 21.5,24.4 A 10,10 0 0 1 18,25.8 L 18,29.9 A 14,14 0 0 1 14,29.9 L 14,25.8 A 10,10 0 0 1 10.5,24.4 L 7.6,27.2 A 14,14 0 0 1 4.8,24.4 L 7.6,21.5 A 10,10 0 0 1 6.2,18 L 2.1,18 A 14,14 0 0 1 2.1,14 L 6.2,14 A 10,10 0 0 1 7.6,10.5 L 4.8,7.6 A 14,14 0 0 1 7.6,4.8 L 10.5,7.6 A 10,10 0 0 1 14,6.2 Z M 16,12 A 4,4 0 0 0 16,20 A 4,4 0 0 0 16,12" style="fill:grey;stroke:black;stroke-width:1px"/>
</svg>
