<?xml version="1.0"?>
<!DOCTYPE svg PUBLIC "-//W3C//DTD SVG 1.1//EN" "http://www.w3.org/Graphics/SVG/1.1/DTD/svg11.dtd">
<svg version="1.1" xmlns="http://www.w3.org/2000/svg" xmlns:xlink="http://www.w3.org/1999/xlink" width="128" height="128">
	<rect x="48" y="16" width="16" height="16" style="fill:white;stroke:black;stroke-width:3px"/>
	<rect x="32" y="32" width="16" height="16" style="fill:white;stroke:black;stroke-width:3px"/>
	<rect x="48" y="32" width="16" height="16" style="fill:white;stroke:black;stroke-width:3px"/>
	<rect x="64" y="32" width="16" height="16" style="fill:white;stroke:black;stroke-width:3px"/>
	<rect x="80" y="32" width="16" height="16" style="fill:white;stroke:black;stroke-width:3px"/>
	<rect x="96" y="32" width="16" height="16" style="fill:white;stroke:black;stroke-width:3px"/>
	<rect x="48" y="48" width="16" height="16" style="fill:white;stroke:black;stroke-width:3px"/>
	<rect x="16" y="64" width="16" height="16" style="fill:white;stroke:black;stroke-width:3px"/>
	<rect x="32" y="64" width="16" height="16" style="fill:white;stroke:black;stroke-width:3px"/>
	<rect x="48" y="64" width="16" height="16" style="fill:white;stroke:black;stroke-width:3px"/>
	<rect x="64" y="64" width="16" height="16" style="fill:white;stroke:black;stroke-width:3px"/>
	<rect x="48" y="80" width="16" height="16" style="fill:white;stroke:black;stroke-width:3px"/>
	<rect x="32" y="96" width="16" height="16" style="fill:white;stroke:black;stroke-width:3px"/>
	<rect x="48" y="96" width="16" height="16" style="fill:white;stroke:black;stroke-width:3px"/>
	<rect x="64" y="96" width="16" height="16" style="fill:white;stroke:black;stroke-width:3px"/>
	<rect x="80" y="96" width="16" height="16" style="fill:white;stroke:black;stroke-width:3px"/>
	<path d="M 32,116 32,92 76,12 92,20 52,100 z M 32,92 52,100" style="fill:yellow;stroke:black;stroke-width:4px"/>
</svg>
